<svg width="16" height="16" viewBox="0 0 16 16" fill="none" xmlns="http://www.w3.org/2000/svg">
<path fill-rule="evenodd" clip-rule="evenodd" d="M7.69004 2.34533C7.73967 2.23602 7.75886 2.11533 7.74558 1.99601C7.7323 1.87669 7.68705 1.76318 7.6146 1.66744C7.54215 1.57171 7.4452 1.49732 7.33398 1.45213C7.22276 1.40693 7.10139 1.39261 6.98271 1.41067C3.78337 1.90133 1.33337 4.664 1.33337 8C1.33337 11.682 4.31804 14.6667 8.00004 14.6667C11.682 14.6667 14.6667 11.682 14.6667 8C14.6667 7.93777 14.6658 7.87554 14.664 7.81333C14.6607 7.69314 14.6249 7.57608 14.5605 7.47456C14.4961 7.37303 14.4054 7.29083 14.298 7.23665C14.1907 7.18246 14.0707 7.15832 13.9508 7.16677C13.8308 7.17523 13.7154 7.21596 13.6167 7.28467C12.8974 7.78558 12.0336 8.03638 11.1579 7.9985C10.2822 7.96062 9.44319 7.63616 8.76986 7.07501C8.09654 6.51386 7.62617 5.74708 7.43108 4.89256C7.23599 4.03804 7.32697 3.1431 7.69004 2.34533Z" fill="#18181B"/>
</svg>
