<svg width="25" height="25" viewBox="0 0 25 25" fill="none" xmlns="http://www.w3.org/2000/svg">
<path d="M12.4986 21.25C12.8048 21.25 13.1003 21.3624 13.3291 21.5659C13.5579 21.7693 13.704 22.0497 13.7399 22.3537L13.7486 22.5V23.75C13.7483 24.0686 13.6263 24.375 13.4076 24.6067C13.1888 24.8384 12.8899 24.9778 12.5719 24.9965C12.2538 25.0151 11.9406 24.9117 11.6963 24.7072C11.452 24.5027 11.295 24.2126 11.2574 23.8963L11.2486 23.75V22.5C11.2486 22.1685 11.3803 21.8505 11.6147 21.6161C11.8492 21.3817 12.1671 21.25 12.4986 21.25ZM20.3899 18.6375L20.5074 18.7413L21.3824 19.6163C21.6066 19.8412 21.7367 20.143 21.7464 20.4605C21.7561 20.7779 21.6446 21.0871 21.4346 21.3253C21.2245 21.5636 20.9317 21.7129 20.6155 21.743C20.2994 21.7731 19.9836 21.6818 19.7324 21.4875L19.6149 21.3838L18.7399 20.5087C18.5242 20.2934 18.3946 20.0067 18.3754 19.7025C18.3563 19.3983 18.449 19.0976 18.6361 18.857C18.8231 18.6163 19.0916 18.4523 19.3911 18.3958C19.6906 18.3393 20.0005 18.3941 20.2624 18.55L20.3899 18.6375ZM6.25737 18.7413C6.47259 18.9565 6.60187 19.2429 6.62098 19.5466C6.64008 19.8504 6.54768 20.1507 6.36112 20.3912L6.25737 20.5087L5.38237 21.3838C5.15742 21.6079 4.85557 21.7381 4.53814 21.7478C4.2207 21.7575 3.91147 21.646 3.67327 21.4359C3.43506 21.2259 3.28573 20.9331 3.25562 20.6169C3.2255 20.3008 3.31685 19.985 3.51112 19.7338L3.61487 19.6163L4.48987 18.7413C4.72427 18.5069 5.04216 18.3753 5.37362 18.3753C5.70507 18.3753 6.02296 18.5069 6.25737 18.7413ZM2.49862 11.25C2.81721 11.2504 3.12366 11.3723 3.35533 11.5911C3.587 11.8098 3.72641 12.1087 3.74508 12.4267C3.76375 12.7448 3.66027 13.058 3.45578 13.3023C3.2513 13.5466 2.96123 13.7036 2.64487 13.7413L2.49862 13.75H1.24862C0.930016 13.7496 0.623575 13.6277 0.391905 13.4089C0.160235 13.1902 0.0208214 12.8913 0.00215004 12.5733C-0.0165214 12.2552 0.0869584 11.942 0.291446 11.6977C0.495934 11.4534 0.785995 11.2964 1.10237 11.2587L1.24862 11.25H2.49862ZM23.7486 11.25C24.0672 11.2504 24.3737 11.3723 24.6053 11.5911C24.837 11.8098 24.9764 12.1087 24.9951 12.4267C25.0138 12.7448 24.9103 13.058 24.7058 13.3023C24.5013 13.5466 24.2112 13.7036 23.8949 13.7413L23.7486 13.75H22.4986C22.18 13.7496 21.8736 13.6277 21.6419 13.4089C21.4102 13.1902 21.2708 12.8913 21.2522 12.5733C21.2335 12.2552 21.337 11.942 21.5414 11.6977C21.7459 11.4534 22.036 11.2964 22.3524 11.2587L22.4986 11.25H23.7486ZM5.26487 3.5125L5.38237 3.61625L6.25737 4.49125C6.48155 4.7162 6.61171 5.01804 6.6214 5.33548C6.63109 5.65292 6.5196 5.96214 6.30955 6.20035C6.09951 6.43855 5.80668 6.58788 5.49052 6.618C5.17437 6.64812 4.8586 6.55676 4.60736 6.3625L4.48987 6.25875L3.61487 5.38375C3.39998 5.16835 3.27103 4.88197 3.2522 4.57829C3.23337 4.27461 3.32594 3.97449 3.51257 3.73419C3.6992 3.49389 3.96706 3.32991 4.26595 3.27299C4.56484 3.21607 4.87423 3.27012 5.13612 3.425L5.26487 3.5125ZM21.3824 3.61625C21.5976 3.83149 21.7269 4.11787 21.746 4.42165C21.7651 4.72543 21.6727 5.02574 21.4861 5.26625L21.3824 5.38375L20.5074 6.25875C20.2824 6.48293 19.9806 6.61309 19.6631 6.62279C19.3457 6.63248 19.0365 6.52098 18.7983 6.31094C18.5601 6.1009 18.4107 5.80806 18.3806 5.49191C18.3505 5.17575 18.4418 4.85999 18.6361 4.60875L18.7399 4.49125L19.6149 3.61625C19.8493 3.38191 20.1672 3.25027 20.4986 3.25027C20.8301 3.25027 21.148 3.38191 21.3824 3.61625ZM12.4986 0C12.8048 4.03882e-05 13.1003 0.112445 13.3291 0.315894C13.5579 0.519343 13.704 0.799686 13.7399 1.10375L13.7486 1.25V2.5C13.7483 2.8186 13.6263 3.12504 13.4076 3.35671C13.1888 3.58838 12.8899 3.72779 12.5719 3.74646C12.2538 3.76514 11.9406 3.66166 11.6963 3.45717C11.452 3.25268 11.295 2.96262 11.2574 2.64625L11.2486 2.5V1.25C11.2486 0.918479 11.3803 0.600537 11.6147 0.366116C11.8492 0.131696 12.1671 0 12.4986 0ZM12.4986 6.25C13.7232 6.24993 14.9208 6.60961 15.9428 7.28437C16.9647 7.95914 17.7659 8.91924 18.2468 10.0455C18.7278 11.1717 18.8672 12.4143 18.648 13.6191C18.4287 14.8239 17.8603 15.9378 17.0134 16.8223C16.1665 17.7069 15.0784 18.3231 13.8843 18.5945C12.6901 18.866 11.4426 18.7806 10.2965 18.3491C9.15049 17.9175 8.15647 17.1588 7.43794 16.1672C6.7194 15.1756 6.30801 13.9947 6.25487 12.7713L6.24862 12.5L6.25487 12.2287C6.32476 10.6197 7.01312 9.09972 8.17639 7.98582C9.33966 6.87193 10.888 6.25009 12.4986 6.25Z" fill="#F9F5F6"/>
</svg>
